<?xml version="1.0" encoding="UTF-8"?>
<mxfile host="app.diagrams.net" modified="2024-01-15T10:00:00.000Z" agent="5.0" etag="xxx" version="22.1.16" type="device">
  <diagram name="YardPass Architecture" id="yardpass-architecture">
    <mxGraphModel dx="1422" dy="794" grid="1" gridSize="10" guides="1" tooltips="1" connect="1" arrows="1" fold="1" page="1" pageScale="1" pageWidth="1169" pageHeight="827" math="0" shadow="0">
      <root>
        <mxCell id="0" />
        <mxCell id="1" parent="0" />
        
        <!-- Title -->
        <mxCell id="title" value="YardPass - Complete Architecture Overview" style="text;html=1;strokeColor=none;fillColor=none;align=center;verticalAlign=middle;whiteSpace=wrap;rounded=0;fontSize=24;fontStyle=1;" vertex="1" parent="1">
          <mxGeometry x="400" y="20" width="400" height="40" as="geometry" />
        </mxCell>
        
        <!-- Frontend Layer -->
        <mxCell id="frontend-layer" value="Frontend Layer (React Native + Expo)" style="swimlane;fontStyle=1;align=center;verticalAlign=top;childLayout=stackLayout;horizontal=1;startSize=30;horizontalStack=0;resizeParent=1;resizeParentMax=0;resizeLast=0;collapsible=1;marginBottom=0;fillColor=#e1d5e7;strokeColor=#9673a6;" vertex="1" parent="1">
          <mxGeometry x="40" y="80" width="1100" height="200" as="geometry" />
        </mxCell>
        
        <!-- Mobile App Components -->
        <mxCell id="mobile-app" value="Mobile App (React Native + Expo)" style="rounded=1;whiteSpace=wrap;html=1;fillColor=#dae8fc;strokeColor=#6c8ebf;fontSize=14;fontStyle=1;" vertex="1" parent="frontend-layer">
          <mxGeometry x="20" y="40" width="200" height="140" as="geometry" />
        </mxCell>
        
        <mxCell id="screens" value="Screens&#xa;• HomeScreen&#xa;• DiscoverScreen&#xa;• CreateScreen&#xa;• ProfileScreen&#xa;• EventDetailsScreen&#xa;• TicketPurchaseScreen&#xa;• ChatScreen&#xa;• OrganizerDashboard" style="rounded=1;whiteSpace=wrap;html=1;fillColor=#fff2cc;strokeColor=#d6b656;fontSize=10;" vertex="1" parent="frontend-layer">
          <mxGeometry x="240" y="40" width="160" height="140" as="geometry" />
        </mxCell>
        
        <mxCell id="components" value="Components&#xa;• VideoFeed&#xa;• VideoPost&#xa;• OrganizerCard&#xa;• QRScanner&#xa;• PaymentScreen&#xa;• VideoRecorder&#xa;• VideoEditor&#xa;• FeedFilterTabs" style="rounded=1;whiteSpace=wrap;html=1;fillColor=#fff2cc;strokeColor=#d6b656;fontSize=10;" vertex="1" parent="frontend-layer">
          <mxGeometry x="420" y="40" width="160" height="140" as="geometry" />
        </mxCell>
        
        <mxCell id="navigation" value="Navigation&#xa;• RootNavigator&#xa;• AuthNavigator&#xa;• MainNavigator&#xa;• Tab Navigation&#xa;• Stack Navigation" style="rounded=1;whiteSpace=wrap;html=1;fillColor=#fff2cc;strokeColor=#d6b656;fontSize=10;" vertex="1" parent="frontend-layer">
          <mxGeometry x="600" y="40" width="160" height="140" as="geometry" />
        </mxCell>
        
        <mxCell id="state-management" value="State Management&#xa;• Redux Toolkit&#xa;• React Query&#xa;• Context API&#xa;• Local Storage&#xa;• MMKV Storage" style="rounded=1;whiteSpace=wrap;html=1;fillColor=#fff2cc;strokeColor=#d6b656;fontSize=10;" vertex="1" parent="frontend-layer">
          <mxGeometry x="780" y="40" width="160" height="140" as="geometry" />
        </mxCell>
        
        <mxCell id="services" value="Services&#xa;• AuthService&#xa;• EventService&#xa;• PaymentService&#xa;• UploadService&#xa;• NotificationService&#xa;• AnalyticsService" style="rounded=1;whiteSpace=wrap;html=1;fillColor=#fff2cc;strokeColor=#d6b656;fontSize=10;" vertex="1" parent="frontend-layer">
          <mxGeometry x="960" y="40" width="160" height="140" as="geometry" />
        </mxCell>
        
        <!-- API Layer -->
        <mxCell id="api-layer" value="API Layer (Supabase Edge Functions)" style="swimlane;fontStyle=1;align=center;verticalAlign=top;childLayout=stackLayout;horizontal=1;startSize=30;horizontalStack=0;resizeParent=1;resizeParentMax=0;resizeLast=0;collapsible=1;marginBottom=0;fillColor=#d5e8d4;strokeColor=#82b366;" vertex="1" parent="1">
          <mxGeometry x="40" y="300" width="1100" height="200" as="geometry" />
        </mxCell>
        
        <!-- Event Management Functions -->
        <mxCell id="event-functions" value="Event Management&#xa;• create-event&#xa;• update-event&#xa;• get-events&#xa;• publish-event&#xa;• event-series&#xa;• event-scheduling&#xa;• event-analytics&#xa;• event-insights" style="rounded=1;whiteSpace=wrap;html=1;fillColor=#e1d5e7;strokeColor=#9673a6;fontSize=10;" vertex="1" parent="api-layer">
          <mxGeometry x="20" y="40" width="180" height="140" as="geometry" />
        </mxCell>
        
        <!-- Ticketing Functions -->
        <mxCell id="ticketing-functions" value="Ticketing System&#xa;• generate-tickets&#xa;• purchase-tickets&#xa;• scan-ticket&#xa;• transfer-ticket&#xa;• tickets-transfer&#xa;• tickets-scan&#xa;• tickets-my" style="rounded=1;whiteSpace=wrap;html=1;fillColor=#e1d5e7;strokeColor=#9673a6;fontSize=10;" vertex="1" parent="api-layer">
          <mxGeometry x="220" y="40" width="160" height="140" as="geometry" />
        </mxCell>
        
        <!-- Payment Functions -->
        <mxCell id="payment-functions" value="Payment Processing&#xa;• checkout-session&#xa;• stripe-webhook&#xa;• process-refund&#xa;• manage-payouts&#xa;• financial-reports" style="rounded=1;whiteSpace=wrap;html=1;fillColor=#e1d5e7;strokeColor=#9673a6;fontSize=10;" vertex="1" parent="api-layer">
          <mxGeometry x="400" y="40" width="160" height="140" as="geometry" />
        </mxCell>
        
        <!-- Social Features -->
        <mxCell id="social-functions" value="Social Features&#xa;• social-feed&#xa;• post-reactions&#xa;• user-connections&#xa;• notifications&#xa;• push-notifications" style="rounded=1;whiteSpace=wrap;html=1;fillColor=#e1d5e7;strokeColor=#9673a6;fontSize=10;" vertex="1" parent="api-layer">
          <mxGeometry x="580" y="40" width="160" height="140" as="geometry" />
        </mxCell>
        
        <!-- Discovery & Search -->
        <mxCell id="discovery-functions" value="Discovery &amp; Search&#xa;• enhanced-search&#xa;• discover-feed&#xa;• smart-recommendations&#xa;• content-optimization&#xa;• search" style="rounded=1;whiteSpace=wrap;html=1;fillColor=#e1d5e7;strokeColor=#9673a6;fontSize=10;" vertex="1" parent="api-layer">
          <mxGeometry x="760" y="40" width="160" height="140" as="geometry" />
        </mxCell>
        
        <!-- Analytics & Enterprise -->
        <mxCell id="analytics-functions" value="Analytics &amp; Enterprise&#xa;• enterprise-analytics&#xa;• realtime-sync&#xa;• waitlist-management&#xa;• upload-event-image&#xa;• get-mapbox-token" style="rounded=1;whiteSpace=wrap;html=1;fillColor=#e1d5e7;strokeColor=#9673a6;fontSize=10;" vertex="1" parent="api-layer">
          <mxGeometry x="940" y="40" width="160" height="140" as="geometry" />
        </mxCell>
        
        <!-- Database Layer -->
        <mxCell id="database-layer" value="Database Layer (Supabase PostgreSQL)" style="swimlane;fontStyle=1;align=center;verticalAlign=top;childLayout=stackLayout;horizontal=1;startSize=30;horizontalStack=0;resizeParent=1;resizeParentMax=0;resizeLast=0;collapsible=1;marginBottom=0;fillColor=#f8cecc;strokeColor=#b85450;" vertex="1" parent="1">
          <mxGeometry x="40" y="520" width="1100" height="200" as="geometry" />
        </mxCell>
        
        <!-- Auth Schema -->
        <mxCell id="auth-schema" value="Auth Schema&#xa;• users&#xa;• sessions&#xa;• identities&#xa;• mfa_factors&#xa;• refresh_tokens&#xa;• audit_log_entries" style="rounded=1;whiteSpace=wrap;html=1;fillColor=#ffe6cc;strokeColor=#d79b00;fontSize=10;" vertex="1" parent="database-layer">
          <mxGeometry x="20" y="40" width="160" height="140" as="geometry" />
        </mxCell>
        
        <!-- Core Tables -->
        <mxCell id="core-tables" value="Core Tables&#xa;• events&#xa;• profiles&#xa;• organizations&#xa;• ticket_tiers&#xa;• tickets&#xa;• orders&#xa;• event_posts" style="rounded=1;whiteSpace=wrap;html=1;fillColor=#ffe6cc;strokeColor=#d79b00;fontSize=10;" vertex="1" parent="database-layer">
          <mxGeometry x="200" y="40" width="160" height="140" as="geometry" />
        </mxCell>
        
        <!-- Social Tables -->
        <mxCell id="social-tables" value="Social Tables&#xa;• posts&#xa;• comments&#xa;• reactions&#xa;• user_connections&#xa;• conversations&#xa;• messages" style="rounded=1;whiteSpace=wrap;html=1;fillColor=#ffe6cc;strokeColor=#d79b00;fontSize=10;" vertex="1" parent="database-layer">
          <mxGeometry x="380" y="40" width="160" height="140" as="geometry" />
        </mxCell>
        
        <!-- Analytics Tables -->
        <mxCell id="analytics-tables" value="Analytics Tables&#xa;• user_behavior_logs&#xa;• event_views&#xa;• content_performance&#xa;• performance_metrics&#xa;• search_logs&#xa;• revenue_tracking" style="rounded=1;whiteSpace=wrap;html=1;fillColor=#ffe6cc;strokeColor=#d79b00;fontSize=10;" vertex="1" parent="database-layer">
          <mxGeometry x="560" y="40" width="160" height="140" as="geometry" />
        </mxCell>
        
        <!-- Payment Tables -->
        <mxCell id="payment-tables" value="Payment Tables&#xa;• stripe_customers&#xa;• stripe_payment_intents&#xa;• stripe_webhook_events&#xa;• payout_accounts&#xa;• refunds&#xa;• promo_codes" style="rounded=1;whiteSpace=wrap;html=1;fillColor=#ffe6cc;strokeColor=#d79b00;fontSize=10;" vertex="1" parent="database-layer">
          <mxGeometry x="740" y="40" width="160" height="140" as="geometry" />
        </mxCell>
        
        <!-- Cache & Storage -->
        <mxCell id="cache-storage" value="Cache &amp; Storage&#xa;• search_cache&#xa;• event_analytics_cache&#xa;• location_cache&#xa;• storage.objects&#xa;• storage.buckets&#xa;• realtime.messages" style="rounded=1;whiteSpace=wrap;html=1;fillColor=#ffe6cc;strokeColor=#d79b00;fontSize=10;" vertex="1" parent="database-layer">
          <mxGeometry x="920" y="40" width="160" height="140" as="geometry" />
        </mxCell>
        
        <!-- External Services -->
        <mxCell id="external-services" value="External Services" style="swimlane;fontStyle=1;align=center;verticalAlign=top;childLayout=stackLayout;horizontal=1;startSize=30;horizontalStack=0;resizeParent=1;resizeParentMax=0;resizeLast=0;collapsible=1;marginBottom=0;fillColor=#d5e8d4;strokeColor=#82b366;" vertex="1" parent="1">
          <mxGeometry x="40" y="740" width="1100" height="120" as="geometry" />
        </mxCell>
        
        <mxCell id="stripe" value="Stripe&#xa;Payment Processing" style="rounded=1;whiteSpace=wrap;html=1;fillColor=#e1d5e7;strokeColor=#9673a6;fontSize=12;" vertex="1" parent="external-services">
          <mxGeometry x="20" y="40" width="120" height="60" as="geometry" />
        </mxCell>
        
        <mxCell id="mapbox" value="Mapbox&#xa;Maps &amp; Location" style="rounded=1;whiteSpace=wrap;html=1;fillColor=#e1d5e7;strokeColor=#9673a6;fontSize=12;" vertex="1" parent="external-services">
          <mxGeometry x="160" y="40" width="120" height="60" as="geometry" />
        </mxCell>
        
        <mxCell id="expo" value="Expo&#xa;Push Notifications" style="rounded=1;whiteSpace=wrap;html=1;fillColor=#e1d5e7;strokeColor=#9673a6;fontSize=12;" vertex="1" parent="external-services">
          <mxGeometry x="300" y="40" width="120" height="60" as="geometry" />
        </mxCell>
        
        <mxCell id="supabase-storage" value="Supabase Storage&#xa;File Management" style="rounded=1;whiteSpace=wrap;html=1;fillColor=#e1d5e7;strokeColor=#9673a6;fontSize=12;" vertex="1" parent="external-services">
          <mxGeometry x="440" y="40" width="120" height="60" as="geometry" />
        </mxCell>
        
        <mxCell id="supabase-realtime" value="Supabase Realtime&#xa;Real-time Updates" style="rounded=1;whiteSpace=wrap;html=1;fillColor=#e1d5e7;strokeColor=#9673a6;fontSize=12;" vertex="1" parent="external-services">
          <mxGeometry x="580" y="40" width="120" height="60" as="geometry" />
        </mxCell>
        
        <mxCell id="supabase-auth" value="Supabase Auth&#xa;Authentication" style="rounded=1;whiteSpace=wrap;html=1;fillColor=#e1d5e7;strokeColor=#9673a6;fontSize=12;" vertex="1" parent="external-services">
          <mxGeometry x="720" y="40" width="120" height="60" as="geometry" />
        </mxCell>
        
        <mxCell id="google-services" value="Google Services&#xa;Sign-in &amp; Maps" style="rounded=1;whiteSpace=wrap;html=1;fillColor=#e1d5e7;strokeColor=#9673a6;fontSize=12;" vertex="1" parent="external-services">
          <mxGeometry x="860" y="40" width="120" height="60" as="geometry" />
        </mxCell>
        
        <mxCell id="analytics-services" value="Analytics Services&#xa;Performance Tracking" style="rounded=1;whiteSpace=wrap;html=1;fillColor=#e1d5e7;strokeColor=#9673a6;fontSize=12;" vertex="1" parent="external-services">
          <mxGeometry x="1000" y="40" width="120" height="60" as="geometry" />
        </mxCell>
        
        <!-- Data Flow Arrows -->
        <!-- Frontend to API -->
        <mxCell id="flow1" value="" style="endArrow=classic;html=1;rounded=0;strokeWidth=2;strokeColor=#666666;" edge="1" parent="1" source="mobile-app" target="event-functions">
          <mxGeometry width="50" height="50" relative="1" as="geometry">
            <mxPoint x="260" y="200" as="sourcePoint" />
            <mxPoint x="310" y="150" as="targetPoint" />
          </mxGeometry>
        </mxCell>
        
        <!-- API to Database -->
        <mxCell id="flow2" value="" style="endArrow=classic;html=1;rounded=0;strokeWidth=2;strokeColor=#666666;" edge="1" parent="1" source="event-functions" target="core-tables">
          <mxGeometry width="50" height="50" relative="1" as="geometry">
            <mxPoint x="110" y="420" as="sourcePoint" />
            <mxPoint x="280" y="520" as="targetPoint" />
          </mxGeometry>
        </mxCell>
        
        <!-- External Service Connections -->
        <mxCell id="flow3" value="" style="endArrow=classic;html=1;rounded=0;strokeWidth=2;strokeColor=#82b366;" edge="1" parent="1" source="payment-functions" target="stripe">
          <mxGeometry width="50" height="50" relative="1" as="geometry">
            <mxPoint x="480" y="420" as="sourcePoint" />
            <mxPoint x="80" y="740" as="targetPoint" />
          </mxGeometry>
        </mxCell>
        
        <mxCell id="flow4" value="" style="endArrow=classic;html=1;rounded=0;strokeWidth=2;strokeColor=#82b366;" edge="1" parent="1" source="discovery-functions" target="mapbox">
          <mxGeometry width="50" height="50" relative="1" as="geometry">
            <mxPoint x="840" y="420" as="sourcePoint" />
            <mxPoint x="220" y="740" as="targetPoint" />
          </mxGeometry>
        </mxCell>
        
        <!-- Legend -->
        <mxCell id="legend" value="Legend" style="swimlane;fontStyle=1;align=center;verticalAlign=top;childLayout=stackLayout;horizontal=1;startSize=30;horizontalStack=0;resizeParent=1;resizeParentMax=0;resizeLast=0;collapsible=1;marginBottom=0;fillColor=#f5f5f5;strokeColor=#666666;" vertex="1" parent="1">
          <mxGeometry x="40" y="880" width="1100" height="100" as="geometry" />
        </mxCell>
        
        <mxCell id="legend-frontend" value="Frontend Components" style="rounded=1;whiteSpace=wrap;html=1;fillColor=#e1d5e7;strokeColor=#9673a6;fontSize=10;" vertex="1" parent="legend">
          <mxGeometry x="20" y="40" width="120" height="40" as="geometry" />
        </mxCell>
        
        <mxCell id="legend-api" value="API Functions" style="rounded=1;whiteSpace=wrap;html=1;fillColor=#d5e8d4;strokeColor=#82b366;fontSize=10;" vertex="1" parent="legend">
          <mxGeometry x="160" y="40" width="100" height="40" as="geometry" />
        </mxCell>
        
        <mxCell id="legend-database" value="Database Tables" style="rounded=1;whiteSpace=wrap;html=1;fillColor=#f8cecc;strokeColor=#b85450;fontSize=10;" vertex="1" parent="legend">
          <mxGeometry x="280" y="40" width="100" height="40" as="geometry" />
        </mxCell>
        
        <mxCell id="legend-external" value="External Services" style="rounded=1;whiteSpace=wrap;html=1;fillColor=#ffe6cc;strokeColor=#d79b00;fontSize=10;" vertex="1" parent="legend">
          <mxGeometry x="400" y="40" width="100" height="40" as="geometry" />
        </mxCell>
        
        <mxCell id="legend-data-flow" value="Data Flow" style="endArrow=classic;html=1;rounded=0;strokeWidth=2;strokeColor=#666666;fontSize=10;" vertex="1" parent="legend">
          <mxGeometry x="520" y="40" width="100" height="40" as="geometry" />
        </mxCell>
        
        <mxCell id="legend-external-flow" value="External API Calls" style="endArrow=classic;html=1;rounded=0;strokeWidth=2;strokeColor=#82b366;fontSize=10;" vertex="1" parent="legend">
          <mxGeometry x="640" y="40" width="100" height="40" as="geometry" />
        </mxCell>
        
        <!-- Architecture Notes -->
        <mxCell id="notes" value="Architecture Notes:&#xa;• React Native + Expo for cross-platform mobile development&#xa;• Supabase Edge Functions for serverless backend logic&#xa;• PostgreSQL database with real-time subscriptions&#xa;• Stripe integration for payment processing&#xa;• Real-time features via Supabase Realtime&#xa;• File storage via Supabase Storage&#xa;• Push notifications via Expo&#xa;• Location services via Mapbox&#xa;• Comprehensive analytics and performance tracking" style="text;html=1;strokeColor=none;fillColor=#f5f5f5;align=left;verticalAlign=top;whiteSpace=wrap;rounded=1;fontSize=10;fontStyle=2;" vertex="1" parent="1">
          <mxGeometry x="40" y="1000" width="1100" height="80" as="geometry" />
        </mxCell>
        
      </root>
    </mxGraphModel>
  </diagram>
</mxfile>
